<?xml version="1.0" encoding="UTF-8"?>
<!DOCTYPE svg PUBLIC "-//W3C//DTD SVG 1.1//EN" "http://www.w3.org/Graphics/SVG/1.1/DTD/svg11.dtd">
<!-- Creator: CorelDRAW -->
<svg xmlns="http://www.w3.org/2000/svg" xml:space="preserve" width="179.583mm" height="72.2572mm" version="1.1" style="shape-rendering:geometricPrecision; text-rendering:geometricPrecision; image-rendering:optimizeQuality; fill-rule:evenodd; clip-rule:evenodd"
viewBox="0 0 17944.07 7219.99"
 xmlns:xlink="http://www.w3.org/1999/xlink"
 xmlns:xodm="http://www.corel.com/coreldraw/odm/2003">
 <defs>
  <style type="text/css">
   <![CDATA[
    .fil0 {fill:#FEFEFE}
   ]]>
  </style>
 </defs>
 <g id="Layer_x0020_1">
  <metadata id="CorelCorpID_0Corel-Layer"/>
  <path class="fil0" d="M7497.48 6162.98c-242.48,0 -462.7,-45.68 -660.67,-137.05 -197.96,-91.37 -354.93,-224.91 -472.07,-401.79 -117.14,-175.7 -174.53,-390.07 -174.53,-641.91 0,-219.05 43.34,-397.09 130.03,-535.32 86.68,-137.05 202.64,-244.82 347.89,-324.47 145.25,-78.48 306.91,-137.05 482.61,-175.7 175.71,-39.83 353.76,-70.28 531.81,-93.72 228.42,-29.28 415.84,-51.54 559.92,-67.94 144.09,-16.4 250.68,-43.35 320.97,-81.99 69.11,-39.83 104.25,-105.43 104.25,-199.13l0 -21.09c0,-160.47 -29.29,-295.19 -89.02,-406.47 -59.74,-111.28 -148.77,-196.78 -268.25,-255.36 -118.32,-59.74 -267.08,-90.2 -446.3,-90.2 -182.73,0 -339.7,29.29 -469.73,86.68 -130.02,57.4 -236.61,128.86 -317.44,214.37 -80.83,85.5 -142.91,173.36 -183.91,262.38l-593.89 -195.61c98.4,-233.1 231.94,-415.84 398.27,-547.04 167.51,-132.36 351.41,-224.9 552.89,-279.96 201.48,-55.06 400.61,-81.99 597.41,-81.99 127.68,0 274.1,15.23 436.92,45.68 163.99,31.62 322.12,92.54 474.4,183.9 151.11,91.37 277.62,227.25 377.18,406.47 99.57,179.22 148.77,419.36 148.77,719.23l0 2529 -606.78 0 0 -521.27 -41 0c-44.51,89.03 -113.62,180.4 -209.67,276.45 -96.05,94.87 -221.39,173.36 -374.84,237.79 -152.28,64.42 -338.53,96.05 -555.23,96.05zm-1686.52 -2266.19l0 0.01 -9.34 -10.26 -636.05 -367.23 0 -762.98 -0.04 -7.72 -0.13 -7.75 -0.2 -7.76 0 -0.01 -0.3 -7.78 -0.37 -7.79 0 -0.02 -0.46 -7.81 -0.54 -7.83 -0.62 -7.85 0 -0.02 -0.7 -7.84 0 -0.02 -0.77 -7.88 -0.86 -7.89 -0.94 -7.9 -1.02 -7.91 0 -0.01 -1.09 -7.92 -1.18 -7.93 -1.25 -7.95 -1.31 -7.94 0 -0.02 -1.4 -7.94 -1.47 -7.97 0 -0.01 -1.55 -7.96 -1.63 -7.97 -1.7 -7.98 -1.76 -7.97 0 -0.02 -1.85 -7.97 -1.91 -7.97 0 -0.02 -1.99 -7.97 -2.06 -7.98 -2.13 -7.97 0 -0.01 -2.19 -7.97 0 -0.01 -2.27 -7.96 -2.33 -7.96 0 -0.01 -2.41 -7.96 -2.47 -7.95 0 -0.01 -2.55 -7.94 0 -0.01 -2.61 -7.93 -2.67 -7.94 -2.75 -7.91 -2.8 -7.91 0 -0.01 -2.87 -7.89 -2.94 -7.9 -2.99 -7.86 0 -0.01 -3.06 -7.85 0 -0.02 -3.14 -7.83 -3.18 -7.82 0 -0.02 -3.25 -7.8 -3.31 -7.8 -3.37 -7.77 0 -0.01 -3.44 -7.75 -3.49 -7.74 -3.55 -7.71 0 -0.01 -3.6 -7.69 -3.68 -7.67 -3.72 -7.64 0 -0.01 -3.79 -7.62 0 -0.01 -3.84 -7.59 0 -0.01 -3.89 -7.56 0 -0.01 -3.95 -7.53 0 -0.02 -4.01 -7.5 0 -0.01 -4.06 -7.48 0 -0.01 -4.12 -7.45 -4.17 -7.42 0 -0.01 -4.21 -7.38 0 -0.02 -4.29 -7.35 0 -0.01 -4.32 -7.32 0 -0.02 -4.19 -6.97 0 -0.02 -4.24 -6.93 0 -0.01 -4.27 -6.9 0 -0.01 -4.31 -6.85 0 -0.02 -4.35 -6.79 0 -0.02 -4.4 -6.77 0 -0.01 -4.43 -6.71 0 -0.02 -4.47 -6.65 0 -0.02 -4.5 -6.61 0 -0.02 -4.53 -6.57 0 -0.01 -4.59 -6.52 0 -0.02 -4.6 -6.47 0 -0.02 -4.66 -6.42 0 -0.01 -4.69 -6.37 0 -0.01 -4.71 -6.31 0 -0.02 -4.75 -6.28 0 -0.01 -4.79 -6.21 0 -0.02 -4.81 -6.16 0 -0.02 -4.85 -6.1 0 -0.01 -4.88 -6.06 0 -0.01 -4.92 -5.99 0 -0.01 -4.93 -5.94 0 -0.01 -4.98 -5.88 0 -0.01 -5 -5.81 0 -0.01 -5.03 -5.77 0 -0.01 -5.06 -5.69 0 -0.01 -5.09 -5.63 0 -0.01 -5.12 -5.57 0 -0.02 -5.15 -5.5 0 -0.02 -5.17 -5.43 0 -0.01 -5.2 -5.38 0 -0.02 -5.23 -5.29 0 -0.01 -5.24 -5.24 0 -0.02 -5.28 -5.17 0 -0.01 -5.29 -5.1 0 -0.02 -5.32 -5.03 0 -0.01 -5.36 -4.95 0 -0.01 -5.36 -4.9 0 -0.01 -5.39 -4.81 0 -0.02 -5.42 -4.74 0 -0.01 -5.44 -4.67 0 -0.01 -5.44 -4.59 0 -0.02 -5.48 -4.52 0 -0.01 -5.5 -4.44 0 -0.01 -5.52 -4.37 0 -0.01 -5.53 -4.28 0 -0.02 -5.56 -4.21 0 -0.01 -5.57 -4.12 0 -0.01 -5.59 -4.05 0 -0.02 -5.6 -3.96 0 -0.01 -5.62 -3.89 0 -0.01 -5.64 -3.8 0 -0.01 -5.65 -3.7 0 -0.02 -5.67 -3.63 0 -0.01 -5.68 -3.55 0 -0.01 -5.71 -3.46 0 -0.01 -5.71 -3.37 0 -0.01 -5.71 -3.27 0 -0.02 -5.74 -3.2 0 -0.01 -5.75 -3.09 0 -0.02 -5.77 -3.01 0 -0.01 -5.77 -2.92 0 -0.02 -5.78 -2.83 0 -0.01 -5.79 -2.73 -2694.66 -1255.07 0 -0.01 -1.83 -0.84 0 -0.01 -1.83 -0.82 0 -0.01 -1.82 -0.81 0 -0.01 -1.8 -0.79 0 -0.01 -1.8 -0.79 0 -0.02 -1.79 -0.76 0 -0.01 -1.77 -0.75 0 -0.02 -1.78 -0.73 0 -0.01 -1.77 -0.73 0 -0.01 -1.76 -0.71 0 -0.01 -1.75 -0.69 0 -0.02 -1.74 -0.68 0 -0.01 -1.74 -0.67 0 -0.01 -1.71 -0.65 0 -0.01 -1.72 -0.66 0 -0.01 -1.72 -0.62 0 -0.02 -1.69 -0.61 0 -0.01 -1.69 -0.6 0 -0.01 -1.7 -0.58 0 -0.02 -1.67 -0.57 0 -0.01 -1.67 -0.57 0 -0.01 -1.66 -0.54 0 -0.02 -1.65 -0.52 0 -0.02 -1.65 -0.51 0 -0.01 -1.63 -0.52 0 -0.01 -1.63 -0.49 0 -0.01 -1.62 -0.47 0 -0.01 -1.61 -0.48 0 -0.01 -1.6 -0.44 0 -0.02 -1.6 -0.44 0 -0.01 -1.58 -0.42 0 -0.01 -1.58 -0.42 0 -0.01 -1.56 -0.39 0 -0.02 -1.56 -0.38 0 -0.02 -1.55 -0.36 0 -0.01 -1.54 -0.36 0 -0.02 -1.54 -0.34 0 -0.02 -1.52 -0.33 0 -0.01 -1.53 -0.31 0 -0.01 -1.49 -0.31 0 -0.01 -1.51 -0.29 0 -0.02 -1.49 -0.27 0 -0.02 -1.48 -0.26 0 -0.01 -1.48 -0.25 0 -0.02 -1.46 -0.23 0 -0.02 -1.45 -0.22 0 -0.01 -1.46 -0.22 0 -0.02 -1.44 -0.19 0 -0.02 -1.43 -0.18 0 -0.01 -1.43 -0.18 0 -0.01 -1.41 -0.16 0 -0.01 -1.4 -0.15 0 -0.02 -1.4 -0.12 0 -0.02 -1.39 -0.12 0 -0.01 -1.37 -0.11 0 -0.02 -1.37 -0.1 0 -0.01 -1.36 -0.08 0 -0.02 -1.36 -0.05 0 -0.02 -1.34 -0.07 0 -0.01 -1.33 -0.04 0 -0.01 -1.33 -0.03 0 -0.02 -1.32 -0.01 0 -0.01 -1.3 -0.02 -1.31 0 -0.79 0 -0.79 0 -0.77 0.02 -0.78 0.01 0 0.01 -0.76 0 0 0.02 -0.76 0.01 0 0.02 -0.77 0.01 0 0.01 -0.75 0.02 0 0.01 -0.74 0.03 0 0.01 -0.74 0.03 0 0.01 -0.73 0.05 0 0.01 -0.72 0.04 0 0.01 -0.73 0.05 0 0.01 -0.72 0.04 0 0.02 -0.7 0.05 0 0.02 -0.71 0.05 0 0.01 -0.69 0.06 0 0.01 -0.7 0.07 0 0.02 -0.69 0.07 0 0.01 -0.68 0.07 0 0.01 -0.68 0.09 0 0.01 -0.66 0.07 0 0.01 -0.67 0.1 0 0.01 -0.65 0.09 0 0.01 -0.65 0.1 0 0.01 -0.65 0.1 0 0.01 -0.64 0.11 0 0.02 -0.62 0.11 0 0.01 -0.64 0.11 0 0.02 -0.63 0.11 0 0.01 -0.61 0.13 0 0.01 -0.61 0.13 0 0.01 -0.59 0.12 0 0.02 -0.6 0.14 0 0.01 -0.59 0.14 0 0.01 -0.59 0.14 0 0.02 -0.58 0.13 0 0.02 -0.57 0.15 0 0.01 -0.56 0.16 0 0.01 -0.57 0.17 0 0.01 -0.56 0.17 0 0.01 -0.54 0.17 0 0.01 -0.54 0.17 0 0.01 -0.54 0.18 0 0.02 -0.53 0.18 0 0.01 -0.52 0.18 0 0.01 -0.52 0.18 0 0.02 -0.51 0.19 0 0.02 -0.5 0.19 0 0.01 -0.5 0.21 0 0.02 -0.5 0.19 0 0.01 -0.48 0.21 0 0.01 -0.47 0.23 0 0.01 -0.47 0.21 0 0.01 -0.47 0.22 0 0.02 -0.46 0.22 0 0.01 -0.46 0.24 0 0.01 -0.44 0.24 0 0.01 -0.45 0.24 0 0.01 -0.43 0.24 0 0.01 -0.43 0.24 0 0.01 -0.43 0.25 0 0.01 -0.41 0.27 0 0.01 -0.4 0.25 0 0.02 -0.6 0.38 0 0.02 -0.6 0.4 0 0.01 -0.59 0.42 0 0.01 -0.6 0.43 0 0.02 -0.59 0.44 0 0.01 -0.59 0.46 0 0.02 -0.59 0.47 0 0.01 -0.6 0.49 0 0.01 -0.59 0.48 0 0.02 -0.6 0.51 0 0.01 -0.6 0.52 0 0.01 -0.59 0.53 0 0.01 -0.58 0.56 0 0.01 -0.6 0.56 0 0.01 -0.6 0.57 0 0.01 -0.58 0.58 0 0.02 -0.59 0.59 0 0.02 -0.6 0.59 0 0.02 -0.58 0.62 0 0.01 -0.6 0.64 0 0.02 -0.59 0.63 0 0.02 -0.59 0.65 0 0.01 -0.59 0.68 0 0.02 -0.59 0.68 0 0.01 -0.58 0.69 0 0.02 -0.59 0.7 0 0.02 -0.59 0.72 0 0.01 -0.58 0.72 0 0.02 -0.59 0.74 0 0.02 -0.59 0.75 0 0.01 -0.58 0.78 0 0.01 -0.58 0.78 0 0.01 -0.58 0.79 0 0.02 -0.58 0.8 0 0.01 -0.59 0.82 0 0.01 -0.58 0.84 0 0.01 -0.58 0.85 0 0.01 -0.57 0.85 0 0.01 -0.58 0.87 0 0.02 -0.58 0.87 0 0.01 -0.57 0.89 0 0.01 -0.58 0.91 0 0.01 -0.57 0.91 0 0.02 -0.58 0.93 0 0.01 -0.57 0.93 0 0.01 -0.57 0.96 0 0.01 -0.58 0.96 0 0.01 -0.57 0.99 0 0.01 -0.57 0.99 0 0.01 -0.57 1 0 0.01 -0.57 1.01 0 0.02 -0.57 1.01 0 0.01 -0.55 1.04 0 0.02 -0.57 1.04 0 0.01 -0.57 1.07 0 0.01 -0.55 1.07 0 0.01 -0.56 1.08 0 0.02 -0.56 1.09 0 0.02 -0.56 1.11 0 0.01 -0.55 1.11 0 0.01 -0.56 1.14 0 0.01 -0.55 1.14 0 0.01 -0.56 1.15 0 0.02 -0.55 1.16 0 0.02 -0.94 2.03 0 0.02 -0.93 2.05 0 0.01 -0.92 2.08 0 0.02 -0.9 2.1 0 0.02 -0.88 2.12 0 0.01 -0.89 2.15 0 0.01 -0.86 2.18 0 0.01 -0.85 2.19 0 0.02 -0.83 2.22 0 0.01 -0.83 2.23 0 0.01 -0.8 2.26 0 0.02 -0.79 2.27 0 0.01 -0.79 2.32 0 0.01 -0.77 2.32 0 0.01 -0.75 2.36 0 0.01 -0.74 2.37 0 0.02 -0.72 2.38 0 0.01 -0.71 2.42 0 0.01 -0.71 2.44 0 0.01 -0.68 2.46 0 0.01 -0.66 2.48 0 0.02 -0.67 2.51 0 0.01 -0.64 2.52 0 0.02 -0.62 2.53 0 0.02 -0.61 2.57 0 0.02 -0.6 2.58 0 0.01 -0.58 2.62 0 0.01 -0.57 2.64 0 0.01 -0.55 2.65 0 0.01 -0.54 2.68 0 0.01 -0.53 2.71 0 0.01 -0.51 2.72 0 0.01 -0.5 2.74 0 0.02 -0.47 2.76 0 0.01 -0.47 2.79 0 0.01 -0.45 2.8 0 0.01 -0.44 2.83 0 0.02 -0.42 2.85 0 0.02 -0.4 2.86 0 0.02 -0.4 2.9 0 0.01 -0.37 2.91 0 0.01 -0.35 2.93 0 0.01 -0.35 2.97 0 0.01 -0.33 2.97 0 0.01 -0.32 3.01 0 0.02 -0.29 3 0 0.02 -0.28 3.05 0 0.01 -0.27 3.06 0 0.02 -0.25 3.07 0 0.02 -0.24 3.1 0 0.02 -0.21 3.13 0 0.01 -0.2 3.15 0 0.01 -0.18 3.16 0 0.02 -0.19 3.19 0 0.01 -0.15 3.22 0 0.01 -0.14 3.23 0 0.01 -0.12 3.25 0 0.01 -0.11 3.27 0 0.02 -0.08 3.3 0 0.01 -0.07 3.31 0 0.02 -0.07 3.32 0 0.02 -0.05 3.35 0 0.02 -0.01 3.38 0 0.01 -0.01 3.4 0 0.01 0 2841.6c0,164.68 -0.72,389 92.09,545.17 88.91,149.67 264.27,226.32 387.81,283.86l2694.66 1255.06c39.1,18.21 72.8,26.85 100.43,26.85 16.9,0 29.96,-3.12 38.59,-8.9 12.69,-8.5 25.32,-25.72 37.06,-50.94 20.23,-43.45 31.55,-102.26 31.55,-175.2l0 -1335.15 636.05 367.23 9.34 -4.82 0 972.74c0,169.59 -33.02,320.74 -92.06,447.48 -61.32,131.65 -151.53,237.7 -263.95,313.13 -116.47,78.15 -250.98,119.82 -396.6,119.82l-5.61 -0.02 -5.63 -0.07 -5.63 -0.09 -5.64 -0.16 -5.65 -0.18 -5.66 -0.23 -5.67 -0.27 -5.68 -0.3 -5.69 -0.36 -5.68 -0.39 -0.01 0 -5.7 -0.44 -5.7 -0.47 -0.01 0 -5.71 -0.53 -5.73 -0.56 -5.72 -0.61 -0.02 0 -5.72 -0.65 -0.01 0 -5.74 -0.68 -5.76 -0.73 -5.76 -0.78 -5.77 -0.81 -5.76 -0.86 -0.02 0 -5.78 -0.91 -5.78 -0.94 -0.01 0 -5.78 -0.98 -0.02 0 -5.79 -1.03 -5.81 -1.08 -5.81 -1.11 -0.01 0 -5.81 -1.16 -0.01 0 -5.82 -1.21 -5.83 -1.23 -0.01 0 -5.84 -1.29 -5.83 -1.35 -0.01 0 -5.84 -1.37 -0.01 0 -5.85 -1.41 -5.87 -1.47 -5.86 -1.5 -5.86 -1.55 -0.02 0 -5.86 -1.59 -0.02 0 -5.87 -1.64 -5.88 -1.69 -5.89 -1.72 -5.89 -1.77 -0.02 0 -5.89 -1.82 -5.9 -1.86 -5.91 -1.9 -0.01 0 -5.91 -1.94 -5.91 -1.99 -5.92 -2.04 -5.92 -2.08 -0.02 0 -5.91 -2.12 -5.94 -2.18 -5.93 -2.21 -5.95 -2.26 -5.94 -2.31 -5.94 -2.34 -0.01 0 -5.95 -2.4 -5.94 -2.44 -5.96 -2.48 -5.95 -2.53 -5.96 -2.58 -5.97 -2.62 -5.97 -2.66 -5.96 -2.72 -5.97 -2.76 -13.41 -6.25c-5.36,151.29 -37.56,286.85 -91.3,402.24l-2.9 6.16 -2.94 6.13 -2.98 6.07 -3.02 6.04 -3.06 6.02 -3.11 5.96 -3.16 5.93 -3.19 5.89 -3.23 5.85 -3.27 5.81 -3.31 5.78 -3.36 5.74 -3.38 5.69 -3.44 5.66 -3.47 5.63 -3.51 5.57 -3.56 5.54 -3.59 5.51 -3.64 5.46 -3.67 5.42 -3.71 5.38 -3.76 5.35 -3.78 5.29 -3.84 5.27 -3.87 5.23 -3.9 5.17 -3.95 5.14 -3.98 5.1 -4.03 5.06 -4.05 5.02 -4.1 4.97 0 0.02 -4.13 4.93 -4.17 4.89 -4.22 4.86 -4.24 4.81 -4.29 4.76 0 0.02 -4.32 4.73 -4.36 4.68 -4.4 4.64 -4.42 4.61 -4.46 4.56 -4.51 4.52 0 0.01 -4.54 4.46 0 0.02 -4.58 4.42 -4.6 4.39 -4.64 4.35 -4.69 4.3 0 0.02 -4.71 4.25 -4.76 4.23 -4.78 4.17 -4.82 4.13 0 0.02 -4.85 4.07 0 0.01 -4.9 4.04 0 0.01 -4.92 3.99 0 0.02 -4.96 3.95 -4.99 3.91 0 0.01 -5.03 3.86 0 0.01 -5.06 3.82 -5.09 3.78 0 0.01 -5.13 3.73 0 0.01 -5.15 3.69 0 0.01 -5.2 3.63 0 0.02 -5.23 3.59 0 0.01 -5.25 3.55 0 0.01 -5.48 3.64 0 0.01 -5.5 3.56 0 0.02 -5.53 3.52 0 0.01 -5.54 3.47 0 0.01 -5.59 3.41 0 0.01 -5.6 3.36 0 0.01 -5.64 3.3 0 0.02 -5.66 3.25 0 0.02 -5.68 3.18 0 0.02 -5.7 3.13 0 0.02 -5.74 3.09 0 0.01 -5.75 3.04 -5.78 2.98 0 0.01 -5.81 2.92 0 0.02 -5.83 2.85 0 0.02 -5.85 2.81 0 0.02 -5.88 2.75 0 0.02 -5.9 2.69 0 0.01 -5.94 2.65 0 0.01 -5.94 2.59 0 0.02 -5.98 2.52 0 0.01 -5.99 2.49 0 0.01 -6.01 2.41 0 0.02 -6.04 2.37 0 0.01 -6.08 2.3 0 0.01 -6.08 2.26 -6.11 2.21 0 0.01 -6.13 2.14 0 0.01 -6.16 2.08 0 0.01 -6.18 2.03 0 0.01 -6.19 1.97 0 0.01 -6.21 1.92 -6.24 1.85 0 0.02 -6.27 1.8 -6.28 1.75 0 0.01 -6.3 1.68 0 0.01 -6.31 1.62 0 0.02 -6.34 1.56 -6.35 1.53 -6.38 1.45 -6.4 1.4 0 0.02 -6.42 1.33 0 0.01 -6.44 1.28 -6.45 1.23 -6.47 1.16 -6.49 1.11 -6.51 1.06 -6.53 1 -6.56 0.92 -6.56 0.88 -6.59 0.82 -6.6 0.74 -6.63 0.7 -6.64 0.63 -6.66 0.57 0 0.02 -6.67 0.51 -6.7 0.44 0 0.02 -6.72 0.38 -6.72 0.34 -6.74 0.27 -6.77 0.21 -6.78 0.16 -6.8 0.09 -6.81 0.03 -5.61 -0.01 -5.63 -0.07 -5.63 -0.1 -5.64 -0.15 -5.66 -0.18 -5.65 -0.24 -5.67 -0.26 -5.67 -0.32 -5.68 -0.35 -5.7 -0.39 -5.7 -0.44 -5.71 -0.47 -5.71 -0.53 -5.72 -0.55 0 -0.02 -5.73 -0.59 -5.74 -0.65 -5.75 -0.68 0 -0.02 -5.75 -0.72 -5.77 -0.77 -5.76 -0.82 -5.77 -0.86 -5.78 -0.9 -5.79 -0.94 -5.8 -0.99 0 -0.01 -5.81 -1.03 -5.8 -1.06 -5.81 -1.13 -5.82 -1.15 0 -0.01 -5.83 -1.19 -5.83 -1.25 -5.84 -1.29 -5.85 -1.33 -5.85 -1.37 0 -0.02 -5.85 -1.41 -5.86 -1.46 0 -0.01 -5.86 -1.5 -5.88 -1.55 -5.88 -1.59 -5.87 -1.64 -5.9 -1.68 0 -0.01 -5.89 -1.72 -5.89 -1.76 0 -0.01 -5.9 -1.81 0 -0.01 -5.91 -1.84 0 -0.02 -5.9 -1.9 -5.92 -1.94 0 -0.01 -5.92 -1.98 -5.92 -2.04 -5.92 -2.08 -5.93 -2.12 0 -0.01 -5.93 -2.17 -5.94 -2.21 -5.94 -2.26 -5.94 -2.31 -5.94 -2.34 0 -0.01 -5.96 -2.39 -5.95 -2.44 -5.96 -2.48 0 -0.01 -5.95 -2.52 -5.96 -2.58 -5.97 -2.62 -5.96 -2.66 -5.96 -2.72 -5.98 -2.76 -2694.67 -1255.04c-242.95,-113.19 -459.26,-329.27 -611.88,-586.08 -148.77,-250.36 -241.13,-546.43 -241.13,-827.86l0 -2841.62 0 -1.41 0.03 -6.51 0 -0.01 0.07 -7.79 0 -0.11 0 -0.42c1.89,-163.59 34.69,-309.57 91.97,-432.62 61.3,-131.66 151.5,-237.69 263.96,-313.16 116.5,-78.13 251,-119.8 396.63,-119.8 119.56,0 245.41,28.08 372.67,87.35l13.48 6.28 0.01 -0.55 0.26 -6.49 0.06 -1.28 0.26 -5.77 0.1 -1.98 0.26 -5.03 0.14 -2.69 0.25 -4.3 0.21 -3.39 0.22 -3.58 0.28 -4.09 0.19 -2.85 0.35 -4.78 0.17 -2.14 0.43 -5.47 0.12 -1.42 0.51 -6.15 0.07 -0.72 0.63 -6.83 0 -0.01 0.66 -6.81 0.69 -6.8 0.14 -1.37 0.6 -5.41 0.23 -2.05 0.55 -4.7 0.31 -2.73 0.5 -3.99 0.42 -3.41 0.43 -3.3 0.54 -4.07 0.35 -2.61 0.65 -4.74 0.27 -1.91 0.78 -5.41 0.18 -1.22 0.92 -6.06 0.08 -0.54 1.04 -6.57 0.01 -0.12 1.06 -6.43 0.12 -0.79 0.98 -5.74 0.25 -1.45 0.89 -5.05 0.38 -2.1 0.8 -4.37 0.51 -2.77 0.71 -3.69 0.65 -3.41 0.6 -3.02 0.8 -4.05 0.49 -2.34 2.69 -12.72 1.28 -5.94 0.1 -0.39 1.43 -6.29 0.05 -0.25 1.42 -6.02 0.21 -0.9 1.29 -5.35c2.02,-8.29 4.14,-16.54 6.33,-24.7l1.09 -3.99 0.59 -2.12 1.28 -4.6 0.43 -1.48 1.74 -6.06 1.69 -5.79 0.09 -0.24 1.8 -6 0.11 -0.38 1.73 -5.61 0.31 -0.97 1.58 -4.98 0.5 -1.58 1.41 -4.34c2.56,-7.86 5.23,-15.66 7.96,-23.39l1.61 -4.49 0.47 -1.29 1.84 -5.06 0.27 -0.69c3.55,-9.56 7.22,-18.98 11.03,-28.33l0.89 -2.17 1.42 -3.41 1.13 -2.73 1.21 -2.83 4.77 -11.01 1.92 -4.37 0.5 -1.09 2.22 -4.91 0.25 -0.54 2.49 -5.41 0 -0.01 2.9 -6.14 0 -0.02 2.94 -6.11 0 -0.01 2.98 -6.07 0 -0.02 3.02 -6.03 0 -0.01 3.08 -5.99 0 -0.01 3.1 -5.95 0 -0.01 3.15 -5.92 0 -0.02 3.19 -5.87 0 -0.02 3.23 -5.85 0 -0.01 3.27 -5.79 0 -0.02 3.31 -5.76 0 -0.02 3.36 -5.72 0 -0.02 3.39 -5.68 0 -0.01 3.44 -5.65 0 -0.01 3.47 -5.6 0 -0.01 3.52 -5.58 0 -0.01 3.55 -5.53 0 -0.01 3.59 -5.49 0 -0.02 3.64 -5.45 0 -0.01 3.67 -5.4 0 -0.02 3.71 -5.36 0 -0.02 3.75 -5.33 0 -0.02 3.8 -5.28 0 -0.01 3.83 -5.26 0 -0.01 3.86 -5.21 0 -0.02 3.91 -5.15 0 -0.02 3.94 -5.12 0 -0.02 3.99 -5.09 0 -0.01 4.02 -5.05 0 -0.01 4.06 -5 0 -0.02 4.09 -4.97 0 -0.02 4.13 -4.92 0 -0.01 4.17 -4.88 0 -0.01 4.22 -4.84 0 -0.02 4.25 -4.79 0 -0.02 4.29 -4.76 0 -0.02 4.31 -4.71 0 -0.02 4.36 -4.67 0 -0.01 4.4 -4.63 0 -0.01 4.42 -4.59 0 -0.02 4.48 -4.54 0 -0.02 4.49 -4.52 0 -0.01 4.55 -4.46 0 -0.02 4.57 -4.42 0 -0.01 4.6 -4.37 0 -0.01 4.66 -4.34 0 -0.01 4.67 -4.3 0 -0.02 4.73 -4.25 0 -0.02 4.74 -4.2 0 -0.01 4.79 -4.17 0 -0.02 4.81 -4.11 0 -0.02 4.87 -4.07 0 -0.01 4.88 -4.04 0 -0.01 4.93 -3.99 0 -0.02 4.95 -3.95 0 -0.01 5.01 -3.9 0 -0.01 5.01 -3.87 0 -0.01 5.06 -3.81 0 -0.02 5.1 -3.77 0 -0.01 5.13 -3.73 0 -0.02 5.16 -3.67 0 -0.01 5.2 -3.65 0 -0.01 5.22 -3.59 0 -0.02 5.26 -3.54 0 -0.02 5.47 -3.63 0 -0.01 5.5 -3.57 0 -0.01 5.54 -3.52 0 -0.01 5.55 -3.47 0 -0.01 5.59 -3.41 0 -0.02 5.6 -3.35 0 -0.02 5.64 -3.3 0 -0.01 5.66 -3.26 0 -0.01 5.68 -3.19 0 -0.01 5.71 -3.14 0 -0.01 5.74 -3.09 0 -0.01 5.75 -3.03 0 -0.01 5.78 -2.98 0 -0.01 5.81 -2.93 0 -0.01 5.84 -2.86 0 -0.01 5.85 -2.82 0 -0.01 5.87 -2.76 0 -0.01 5.91 -2.69 0 -0.01 5.93 -2.65 0 -0.02 5.95 -2.59 0 -0.01 5.97 -2.52 0 -0.02 5.99 -2.48 0 -0.01 6.03 -2.42 0 -0.01 6.04 -2.37 0 -0.01 6.06 -2.3 0 -0.02 6.09 -2.24 0 -0.02 6.11 -2.2 0 -0.02 6.12 -2.13 0 -0.01 6.16 -2.08 0 -0.02 6.18 -2.02 0 -0.01 6.2 -1.97 0 -0.02 6.21 -1.9 0 -0.01 6.25 -1.86 0 -0.01 6.25 -1.79 0 -0.01 6.28 -1.75 0 -0.01 6.3 -1.68 0 -0.01 6.31 -1.63 0 -0.01 6.34 -1.55 0 -0.02 6.35 -1.51 0 -0.01 6.38 -1.44 0 -0.02 6.39 -1.4 0 -0.01 6.41 -1.33 0 -0.02 6.44 -1.26 0 -0.01 6.46 -1.22 0 -0.01 6.46 -1.15 0 -0.02 6.49 -1.09 0 -0.02 6.52 -1.04 0 -0.01 6.54 -0.99 0 -0.01 6.54 -0.91 0 -0.02 6.58 -0.86 0 -0.01 6.58 -0.81 0 -0.01 6.61 -0.73 0 -0.02 6.61 -0.68 0 -0.01 6.64 -0.62 0 -0.02 6.66 -0.57 0 -0.01 6.69 -0.5 0 -0.01 6.7 -0.45 0 -0.01 6.71 -0.37 0 -0.02 6.73 -0.32 0 -0.01 6.74 -0.26 0 -0.02 6.76 -0.19 0 -0.02 6.79 -0.14 0 -0.01 6.79 -0.08 0 -0.02 6.81 -0.01 5.62 0 0 0.01 5.62 0.06 0 0.01 5.63 0.09 0 0.01 5.64 0.14 0 0.01 5.65 0.17 0 0.01 5.65 0.22 0 0.02 5.67 0.25 0 0.01 5.68 0.29 0 0.02 5.69 0.34 0 0.02 5.68 0.37 0 0.02 5.7 0.43 0 0.01 5.71 0.46 0 0.01 5.71 0.51 0 0.02 5.72 0.54 0 0.01 5.74 0.6 0 0.01 5.74 0.64 0 0.01 5.74 0.67 0 0.01 5.75 0.72 0 0.02 5.77 0.76 0 0.01 5.76 0.81 0 0.01 5.78 0.85 0 0.01 5.78 0.89 0 0.01 5.78 0.93 0 0.01 5.8 0.97 0 0.02 5.81 1.02 0 0.02 5.8 1.05 0 0.01 5.81 1.11 0 0.02 5.82 1.13 0 0.02 5.83 1.19 0 0.01 5.83 1.24 0 0.01 5.84 1.28 0 0.01 5.85 1.32 0 0.01 5.85 1.36 0 0.01 5.85 1.42 0 0.01 5.86 1.44 0 0.02 5.86 1.49 0 0.02 5.88 1.54 0 0.01 5.88 1.58 0 0.01 5.87 1.63 0 0.01 5.9 1.66 0 0.02 5.89 1.72 0 0.01 5.89 1.75 0 0.01 5.9 1.8 0 0.02 5.91 1.84 0 0.01 5.9 1.89 0 0.01 5.91 1.94 0 0.02 5.92 1.97 0 0.01 5.92 2.02 0 0.02 5.93 2.06 0 0.02 5.93 2.12 0 0.01 5.93 2.15 0 0.01 5.94 2.21 0 0.01 5.93 2.25 0 0.01 5.95 2.29 0 0.01 5.94 2.34 0 0.02 5.95 2.37 0 0.01 5.95 2.43 0 0.01 5.96 2.48 0 0.02 5.96 2.51 0 0.01 5.96 2.56 0 0.02 5.96 2.6 0 0.02 5.96 2.65 0 0.01 5.96 2.7 0 0.02 5.97 2.74 2694.66 1255.07 0 0.01 11.37 5.37 0 0.01 11.33 5.53 0 0.02 11.29 5.67 0 0.01 11.24 5.81 0 0.01 11.21 5.96 0 0.02 11.16 6.1 0 0.01 11.12 6.25 0 0.01 11.07 6.38 0 0.02 11.02 6.5 0 0.02 10.98 6.65 0 0.02 10.93 6.79 0 0.02 10.88 6.92 0 0.01 10.83 7.06 0 0.02 10.79 7.19 0 0.02 10.73 7.31 0 0.01 10.68 7.46 0 0.02 10.62 7.57 0 0.01 10.58 7.71 0 0.02 10.51 7.83 0 0.02 10.47 7.94 0 0.02 10.4 8.08 0 0.02 10.36 8.19 0 0.02 10.29 8.32 0 0.01 10.23 8.43 0 0.02 10.18 8.55 0 0.02 10.13 8.66 0 0.02 10.05 8.79 0 0.01 9.98 8.89 0 0.02 9.93 9 0 0.01 9.87 9.12 0 0.02 9.79 9.22 0 0.01 9.74 9.34 0 0.01 9.68 9.43 0 0.01 9.59 9.54 0 0.02 9.54 9.64 0 0.01 9.46 9.75 0 0.01 9.4 9.85 0 0.01 9.32 9.94 0 0.02 9.27 10.04 0 0.01 9.18 10.12 0 0.02 9.11 10.23 0 0.01 9.02 10.32 0 0.02 8.96 10.41 0 0.01 8.89 10.5 0 0.01 8.81 10.6 0 0.01 8.73 10.68 0 0.01 8.66 10.76 0 0.02 8.57 10.84 0 0.01 8.5 10.93 0 0.01 8.42 11.01 0 0.02 8.32 11.08 0 0.01 8.25 11.18 0 0.01 8.17 11.25 0 0.01 8.08 11.32 0 0.01 8 11.4 0 0.01 7.92 11.47 0 0.01 7.82 11.54 0 0.01 7.74 11.61 0 0.01 7.66 11.68 0 0.01 7.56 11.73 0 0.02 7.47 11.81 0 0.01 7.38 11.87 0 0.02 7.3 11.94 0 0.01 7.19 11.99 0 0.02 6.92 11.76 0 0.01 6.86 11.81 0 0.02 6.75 11.88 0 0.01 6.68 11.96 0 0.01 6.59 12.01 0 0.01 6.49 12.07 0 0.01 6.43 12.13 0 0.02 6.32 12.18 0 0.02 6.25 12.23 0 0.01 6.16 12.3 0 0.01 6.05 12.36 0 0.01 5.98 12.4 0 0.01 5.89 12.45 0 0.02 5.78 12.49 0 0.01 5.7 12.55 0 0.02 5.6 12.6 0 0.02 5.5 12.63 0 0.01 5.41 12.69 0 0.01 5.3 12.73 0 0.01 5.22 12.76 0 0.01 5.1 12.82 0 0.01 5.02 12.84 0 0.01 4.9 12.88 0 0.02 4.81 12.91 0 0.01 4.71 12.95 0 0.02 4.61 12.97 0 0.02 4.49 13.02 0 0.01 4.39 13.03 0 0.02 4.3 13.07 0 0.02 4.17 13.09 0 0.01 4.08 13.13 0 0.02 3.96 13.14 0 0.01 3.87 13.18 0 0.01 3.74 13.19 0 0.01 3.63 13.21 0 0.02 3.54 13.23 0 0.01 3.41 13.24 0 0.01 3.3 13.27 0 0.02 3.18 13.27 0 0.01 3.07 13.3 0 0.01 2.95 13.3 0 0.01 2.84 13.31 0 0.02 2.72 13.32 0 0.02 2.6 13.32 0 0.01 2.49 13.34 2.37 13.36 2.24 13.35 0 0.01 2.12 13.34 0 0.01 2 13.36 1.88 13.35 0 0.01 1.75 13.34 0 0.02 1.64 13.33 0 0.02 1.49 13.34 1.38 13.33 1.26 13.34 1.11 13.31 0 0.02 0.99 13.31 0.86 13.3 0.74 13.28 0.59 13.28 0.48 13.26 0.34 13.23 0 0.01 0.2 13.21 0.06 13.2 0 1140.46zm-4673 -2351.7l-284.91 -132.71c-39.12,-18.21 -72.8,-26.84 -100.39,-26.84 -16.93,0 -29.98,3.11 -38.62,8.89 -12.68,8.51 -25.33,25.75 -37.07,50.97 -20.22,43.45 -31.54,102.25 -31.54,175.18l0 2066.7 -0.04 0 0 776.33c0,164.71 57.63,343.97 150.42,500.1 88.92,149.7 205.96,271.37 329.49,328.93l2694.67 1255.07c39.1,18.21 72.8,26.84 100.43,26.84 16.9,0 30.01,-3.1 38.6,-8.9 12.7,-8.48 25.34,-25.71 37.08,-50.95 20.22,-43.43 31.53,-102.21 31.53,-175.16l0 -255 -2036.62 -948.58c-225.69,-112.12 -359.71,-169.94 -443.77,-221.44l-8.78 -5.5 -8.72 -5.71 -8.67 -5.92 -8.6 -6.12 -8.53 -6.29 -8.47 -6.49 -8.4 -6.67 -8.35 -6.84 -8.27 -7.03 -8.18 -7.2 -8.12 -7.35 -8.05 -7.53 -7.96 -7.68 -7.89 -7.84 -7.79 -7.99 -7.73 -8.14 -7.63 -8.28c-2.53,-2.78 -5.06,-5.57 -7.54,-8.4l-7.46 -8.56 -7.37 -8.66 -7.28 -8.8 -7.17 -8.91 -7.08 -9.04 -6.98 -9.14 -6.88 -9.25 -6.78 -9.36 -6.69 -9.45 -6.56 -9.55 -6.46 -9.62 0 -0.02 -6.35 -9.71 -6.25 -9.8 -6.15 -9.87 0 -0.02 -6.02 -9.94 -5.91 -10.01 -5.78 -10.08 -5.67 -10.14 0 -0.01 -5.54 -10.19 -5.42 -10.25 -5.29 -10.29 -5.17 -10.33 -5.03 -10.37 -4.9 -10.4 -4.77 -10.45 -4.63 -10.45 -4.49 -10.47 0 -0.01 -4.36 -10.49 0 -0.01 -4.21 -10.5 -4.07 -10.51 0 -0.01 -3.93 -10.51 -3.78 -10.51 -3.63 -10.51 -3.48 -10.5 -3.33 -10.48 0 -0.02 -3.17 -10.45 0 -0.02 -3.03 -10.43 0 -0.01 -2.85 -10.4 0 -0.01 -2.7 -10.38 0 -0.01 -2.54 -10.34 -2.37 -10.31 0 -0.01 -2.22 -10.25 0 -0.01 -2.04 -10.21 0 -0.01 -1.87 -10.15 0 -0.02 -1.7 -10.09 0 -0.02 -1.53 -10.02 0 -0.01 -0.88 -6.17 0 -0.02 -0.88 -6.22 0 -0.01 -0.87 -6.28 0 -0.02 -0.87 -6.34 0 -0.01 -0.86 -6.39 0 -0.02 -0.85 -6.45 0 -0.01 -0.86 -6.53 0 -0.02 -0.84 -6.59 0 -0.01 -0.84 -6.67 0 -0.01 -0.83 -6.75 -0.83 -6.82 0 -0.01 -0.82 -6.9 0 -0.01 -0.8 -6.98 0 -0.01 -0.81 -7.06 0 -0.01 -0.8 -7.16 -0.79 -7.24 0 -0.01 -0.79 -7.33 0 -0.01 -0.78 -7.42 0 -0.01 -0.76 -7.52 -0.76 -7.63 -0.01 0 -0.75 -7.72 -0.75 -7.82 -0.74 -7.94 -0.73 -8.04 -0.72 -8.14 0 -0.01 -0.71 -8.26 -0.01 0 -0.7 -8.37 -0.01 0 -0.69 -8.49 -0.68 -8.61 -0.02 0 -0.67 -8.74 -0.67 -8.84 0 -0.02 -0.67 -8.97 -0.65 -9.11 -0.63 -9.25 -0.02 0 -0.62 -9.38 -0.02 0 -0.61 -9.49 -0.01 -0.02 -0.61 -9.64 -0.6 -9.79 -0.01 0 -0.58 -9.94 -0.02 0 -0.58 -10.07 -0.57 -10.23 -0.56 -10.37 -0.56 -10.53 -0.54 -10.67 -0.01 0 -0.53 -10.85 -0.51 -10.99 -0.02 0 -0.5 -11.17 -0.01 0 -0.48 -11.32 -0.02 0 -0.48 -11.48 -0.47 -11.67 -0.48 -11.82 -0.45 -12.01 -0.45 -12.19 -0.43 -12.35 -0.41 -12.54 -0.4 -12.73 -0.02 0 -0.39 -12.91 -0.37 -13.1 -0.01 0 -0.37 -13.28 -0.36 -13.48 -0.34 -13.67 -0.33 -13.88 -0.32 -14.07 -0.31 -14.27 0 -2176.95zm11814.35 4610.86c-317.44,0 -598.57,-80.83 -843.39,-243.65 -244.82,-161.65 -435.75,-392.41 -573.97,-689.94 -137.05,-296.35 -205,-648.94 -205,-1056.58 0,-405.3 69.12,-755.54 207.34,-1051.89 138.23,-296.36 330.33,-524.78 575.15,-684.09 244.82,-160.48 525.94,-240.13 843.39,-240.13 249.5,0 447.46,41 593.89,122.99 146.42,81.99 258.87,175.7 338.53,279.96 78.48,104.26 138.22,189.76 180.39,258.87l48.03 0 0 -1890.61 617.31 0 0 5113.07 -597.41 0 0 -593.89 -67.94 0c-42.17,71.45 -103.08,159.3 -183.9,265.9 -80.83,106.6 -195.62,201.48 -343.22,284.64 -147.59,84.34 -344.39,125.34 -589.2,125.34zm93.72 -551.72c233.1,0 429.89,-62.08 589.2,-183.9 160.47,-122.99 282.3,-292.85 364.29,-509.55 82,-217.88 123,-468.56 123,-752.02 0,-283.47 -39.83,-530.64 -121.82,-742.66 -80.83,-212.02 -201.48,-377.18 -361.96,-495.49 -159.3,-119.49 -357.27,-179.23 -592.71,-179.23 -242.48,0 -445.13,63.26 -606.78,188.59 -160.48,126.51 -281.13,296.36 -361.95,509.56 -79.66,214.36 -119.49,454.49 -119.49,719.23 0,268.24 39.83,510.71 121.82,729.76 80.83,217.88 202.65,392.42 365.47,521.27 162.82,128.86 361.95,194.45 600.92,194.45zm-4936.37 1099.32l-139.48 0c-4.03,-22.92 -11.37,-43.23 -22.05,-61.08 -10.67,-17.69 -23.98,-32.9 -39.9,-45.31 -15.93,-12.44 -33.96,-21.7 -54.26,-28.02 -20.3,-6.47 -41.99,-9.61 -65.47,-9.61 -41.46,0 -78.22,10.31 -110.4,31.14 -32.03,20.83 -57.06,51.12 -75.28,91.03 -18.19,39.89 -27.28,88.53 -27.28,145.92 0,58.47 9.27,107.64 27.46,147.55 18.22,39.89 43.42,69.99 75.27,90.12 32.01,20.3 68.6,30.45 109.9,30.45 22.92,0 44.27,-2.97 64.22,-9.1 20.12,-6.12 38.16,-15.04 54.08,-27.12 16.1,-11.91 29.59,-26.59 40.78,-43.92 11.02,-17.35 18.56,-37.29 22.93,-59.69l139.48 0.72c-5.26,36.39 -16.63,70.34 -33.77,102.19 -17.33,31.83 -39.9,59.86 -67.73,84.18 -27.84,24.14 -60.37,43.05 -97.64,56.7 -37.3,13.46 -78.77,20.3 -124.28,20.3 -67.03,0 -127.04,-15.59 -179.73,-46.73 -52.67,-30.98 -94.16,-75.96 -124.43,-134.57 -30.45,-58.61 -45.5,-129.01 -45.5,-211.08 0,-82.24 15.24,-152.61 45.86,-211.22 30.45,-58.44 72.1,-103.26 124.78,-134.39 52.85,-31.16 112.35,-46.56 179.02,-46.56 42.54,0 82.1,5.96 118.66,17.86 36.58,11.9 69.15,29.41 97.66,52.31 28.53,23.12 52.16,51.13 70.7,84.36 18.55,33.24 30.63,71.05 36.4,113.59zm215.43 505.94l-147.71 0 268.82 -763.73 170.8 0 269.16 763.73 -147.51 0 -204.05 -607.1 -5.95 0 -203.55 607.1 -0.01 0zm647.54 0l0 -86.1 391.68 -561.59 -393.77 0 0 -116.04 565.26 0 0 86.29 -391.15 561.41 393.44 0 0 116.03 -565.46 0zm699.5 0l0 -763.73 138.44 0 0 323.42 353.87 0 0 -323.42 138.6 0 0 763.73 -138.6 0 0 -324.45 -353.87 0 0 324.45 -138.44 0zm-3107.95 -217.79l0 -456.27 80.68 0 0 170.64 3.37 0c4.06,-8.26 10.05,-17.16 17.54,-26.56 7.52,-9.4 17.83,-17.56 30.75,-24.26 12.98,-6.83 29.44,-10.11 49.49,-10.11 26.44,0 50.25,6.64 71.59,20.08 21.34,13.45 38.28,33.3 50.82,59.44 12.52,26.26 18.82,58.31 18.82,96.38 0,37.55 -6.18,69.57 -18.49,95.8 -12.37,26.22 -29.09,46.29 -50.32,60.1 -21.34,13.79 -45.34,20.77 -72.27,20.77 -19.51,0 -35.84,-3.34 -48.7,-9.78 -12.93,-6.6 -23.26,-14.47 -31.15,-23.75 -7.74,-9.3 -13.78,-18.1 -18.08,-26.44l-4.73 0 0 53.94 -79.32 0zm79.16 -171.04c0,22.06 3.13,41.49 9.4,58.13 6.35,16.61 15.42,29.59 27.4,38.88 12.03,9.18 26.56,13.92 43.63,13.92 17.76,0 32.7,-4.84 44.71,-14.48 12.03,-9.5 21.07,-22.65 27.31,-39.36 6.17,-16.74 9.29,-35.75 9.29,-57.09 0,-21.34 -3.01,-40.14 -9.25,-56.68 -6.04,-16.39 -15.1,-29.38 -27.13,-38.65 -12,-9.41 -26.98,-14.13 -44.93,-14.13 -17.29,0 -31.91,4.62 -43.95,13.58 -12,9.12 -21.12,21.87 -27.27,38.17 -6.17,16.33 -9.18,35.57 -9.18,57.71l-0.03 0zm350.97 299.34c-10.96,0 -21.11,-0.84 -30.42,-2.53 -9.28,-1.77 -16.71,-3.64 -22.15,-5.96l18.71 -62.85c11.71,3.46 22.14,5.11 31.4,4.89 9.18,-0.03 17.3,-2.91 24.45,-8.53 6.97,-5.54 12.95,-14.72 17.9,-27.7l6.86 -18.52 -124.07 -349.31 85.65 0 78.78 258.43 3.57 0 79.04 -258.43 85.82 0 -137.06 383.61c-6.4,18.2 -14.85,33.64 -25.42,46.74 -10.55,12.91 -23.36,22.88 -38.55,29.8 -15.28,6.86 -33.43,10.36 -54.5,10.36zm9436.36 -964.04c-262.39,0 -496.67,-37.48 -701.65,-114.79 -205,-76.14 -373.67,-189.77 -506.04,-340.88 -132.36,-151.1 -222.56,-336.18 -268.25,-556.4l586.86 -140.57c55.05,210.85 159.3,364.3 311.58,462.69 151.11,98.4 342.04,147.59 570.46,147.59 268.25,0 481.44,-56.23 640.75,-171.01 158.13,-114.8 237.79,-250.68 237.79,-408.82 0,-132.36 -45.68,-242.48 -138.23,-330.33 -92.54,-89.03 -234.27,-154.63 -424.03,-197.96l-638.4 -151.11c-347.9,-81.99 -606.78,-209.67 -775.45,-381.87 -169.85,-173.36 -254.19,-394.76 -254.19,-664.17 0,-220.22 62.08,-413.49 185.07,-582.18 124.17,-167.51 292.85,-299.87 506.04,-394.76 214.36,-94.87 456.84,-141.73 729.77,-141.73 263.56,0 486.12,38.65 671.2,118.31 183.91,78.48 333.84,187.42 448.64,325.64 115.97,138.22 202.65,297.53 260.04,479.09l-559.92 144.09c-52.72,-137.05 -140.57,-262.39 -262.39,-374.84 -122.99,-111.28 -306.91,-167.51 -554.06,-167.51 -228.42,0 -419.36,52.71 -571.64,158.13 -152.28,104.26 -228.42,237.79 -228.42,397.09 0,142.92 51.54,256.54 154.63,342.05 103.08,85.51 267.07,154.62 490.8,207.34l579.84 137.05c347.89,83.16 605.6,210.84 771.94,383.04 167.51,173.36 250.67,391.24 250.67,653.63 0,224.9 -63.25,424.04 -189.76,598.57 -127.69,175.71 -304.56,312.76 -532.98,413.49 -227.25,100.74 -490.81,151.11 -790.68,151.11zm-6752.74 -81.99l0 -3836.26 597.41 0 0 590.37 41 0c70.28,-195.61 196.78,-351.41 379.52,-468.55 181.57,-118.31 386.56,-176.88 614.98,-176.88 45.68,0 100.74,1.17 163.99,3.52 62.08,2.34 112.45,4.69 148.76,7.02l0 620.84c-18.74,-4.69 -64.42,-11.72 -137.05,-21.09 -73.79,-9.36 -151.1,-14.05 -233.1,-14.05 -183.9,0 -347.89,38.65 -493.15,115.97 -145.24,76.14 -258.87,181.56 -340.87,315.1 -83.16,133.53 -124.16,288.15 -124.16,461.52l0 2402.49 -617.32 0zm-2073.84 -456.84c228.42,0 421.7,-44.51 579.83,-133.53 158.13,-89.03 277.62,-205 359.61,-347.9 83.16,-142.91 124.16,-292.85 124.16,-448.63l0 -531.81c-25.77,30.46 -79.66,57.39 -165.16,80.83 -84.34,24.6 -181.57,45.68 -289.33,63.25 -108.94,18.75 -214.37,33.97 -316.28,46.86 -101.91,12.88 -182.73,22.25 -241.3,29.28 -148.77,17.58 -288.16,49.2 -417.01,93.72 -130.03,44.51 -233.1,110.1 -310.42,195.61 -78.48,86.68 -117.14,202.65 -117.14,349.07 0,132.36 33.97,243.65 103.09,332.68 67.94,89.02 162.82,156.97 281.13,202.65 119.49,45.68 255.36,67.94 408.82,67.94z"/>
 </g>
</svg>
