<svg width="38" height="38" viewBox="0 0 38 38" fill="none" xmlns="http://www.w3.org/2000/svg">
<path d="M6.5 0.25C3.07298 0.25 0.25 3.07298 0.25 6.5V31.5C0.25 34.927 3.07298 37.75 6.5 37.75H31.5C34.927 37.75 37.75 34.927 37.75 31.5V6.5C37.75 3.07298 34.927 0.25 31.5 0.25H6.5ZM19 8.58333H23.1667C23.1667 10.6771 26.2312 12.75 27.3333 12.75V16.9167C26.0729 16.9167 24.5583 16.3628 23.1667 15.4274V23.1667C23.1667 26.6125 20.3625 29.4167 16.9167 29.4167C13.4708 29.4167 10.6667 26.6125 10.6667 23.1667C10.6667 19.7208 13.4708 16.9167 16.9167 16.9167V21.0833C15.7667 21.0833 14.8333 22.0187 14.8333 23.1667C14.8333 24.3146 15.7667 25.25 16.9167 25.25C18.0667 25.25 19 24.3146 19 23.1667V8.58333Z" fill="white"/>
</svg>
