<svg width="50" height="36" viewBox="0 0 50 36" fill="none" xmlns="http://www.w3.org/2000/svg">
<path d="M20 25.5L32.975 18L20 10.5V25.5ZM48.9 5.925C49.225 7.1 49.45 8.675 49.6 10.675C49.775 12.675 49.85 14.4 49.85 15.9L50 18C50 23.475 49.6 27.5 48.9 30.075C48.275 32.325 46.825 33.775 44.575 34.4C43.4 34.725 41.25 34.95 37.95 35.1C34.7 35.275 31.725 35.35 28.975 35.35L25 35.5C14.525 35.5 8 35.1 5.425 34.4C3.175 33.775 1.725 32.325 1.1 30.075C0.775 28.9 0.55 27.325 0.4 25.325C0.225 23.325 0.15 21.6 0.15 20.1L0 18C0 12.525 0.4 8.5 1.1 5.925C1.725 3.675 3.175 2.225 5.425 1.6C6.6 1.275 8.75 1.05 12.05 0.9C15.3 0.725 18.275 0.65 21.025 0.65L25 0.5C35.475 0.5 42 0.9 44.575 1.6C46.825 2.225 48.275 3.675 48.9 5.925Z" fill="white"/>
</svg>
