<svg width="112" height="45" viewBox="0 0 112 45" fill="none" xmlns="http://www.w3.org/2000/svg">
<g clip-path="url(#clip0_346_398)">
<g clip-path="url(#clip1_346_398)">
<path fill-rule="evenodd" clip-rule="evenodd" d="M46.8926 38.2393C45.3943 38.2393 44.0336 37.9558 42.8102 37.3889C41.587 36.8219 40.6171 35.9934 39.8932 34.8958C39.1695 33.8055 38.8148 32.4754 38.8148 30.9127C38.8148 29.5536 39.0826 28.4488 39.6182 27.5911C40.1539 26.7407 40.8704 26.0719 41.768 25.5778C42.6655 25.0908 43.6645 24.7274 44.7501 24.4875C45.8358 24.2404 46.9361 24.0515 48.0363 23.906C49.4477 23.7243 50.6058 23.5862 51.4961 23.4844C52.3865 23.3827 53.0451 23.2155 53.4795 22.9757C53.9065 22.7285 54.1236 22.3215 54.1236 21.7401V21.6092C54.1236 20.6135 53.9426 19.7775 53.5736 19.0871C53.2044 18.3966 52.6543 17.866 51.916 17.5026C51.1848 17.1319 50.2656 16.9429 49.1582 16.9429C48.0291 16.9429 47.0592 17.1246 46.2557 17.4808C45.4522 17.8369 44.7937 18.2803 44.2941 18.8109C43.7947 19.3414 43.4111 19.8866 43.1577 20.439L39.488 19.2252C40.096 17.7788 40.9211 16.6449 41.949 15.8308C42.9841 15.0095 44.1204 14.4354 45.3654 14.0937C46.6104 13.7521 47.8408 13.585 49.0569 13.585C49.8459 13.585 50.7506 13.6795 51.7567 13.8684C52.7701 14.0645 53.7472 14.4425 54.6881 15.0095C55.6218 15.5764 56.4036 16.4196 57.0188 17.5316C57.634 18.6437 57.9381 20.1337 57.9381 21.9945V37.6869H54.1887V34.4523H53.9353C53.6602 35.0048 53.2332 35.5718 52.6397 36.1677C52.0462 36.7564 51.2717 37.2435 50.3235 37.6432C49.3825 38.0429 48.2316 38.2393 46.8926 38.2393ZM36.4714 24.1776L36.4136 24.114L32.4834 21.8353V17.1011L32.4831 17.0531L32.4823 17.0051L32.481 16.9569L32.4793 16.9086L32.4769 16.8603L32.4741 16.8117L32.4707 16.7631L32.4669 16.7143L32.4626 16.6656L32.4579 16.6166L32.4525 16.5676L32.4467 16.5186L32.4404 16.4695L32.4337 16.4203L32.4264 16.3711L32.4187 16.3218L32.4106 16.2725L32.4019 16.2231L32.3928 16.1736L32.3833 16.1242L32.3732 16.0747L32.3627 16.0252L32.3518 15.9758L32.3404 15.9262L32.3285 15.8767L32.3163 15.8272L32.3035 15.7777L32.2904 15.7282L32.2769 15.6787L32.2628 15.6292L32.2484 15.5798L32.2335 15.5304L32.2183 15.481L32.2025 15.4317L32.1864 15.3824L32.1699 15.3332L32.1529 15.2841L32.1355 15.235L32.1178 15.186L32.0997 15.1369L32.0812 15.0882L32.0623 15.0395L32.0429 14.9908L32.0232 14.9422L32.0031 14.8937L31.9828 14.8453L31.9619 14.7971L31.9406 14.749L31.919 14.7009L31.8971 14.6531L31.8749 14.6053L31.8522 14.5577L31.8292 14.5103L31.8057 14.4629L31.7821 14.4158L31.758 14.3688L31.7336 14.322L31.7088 14.2753L31.6837 14.2288L31.6582 14.1826L31.6324 14.1366L31.6064 14.0907L31.5799 14.0449L31.5532 13.9995L31.5274 13.9561L31.5012 13.913L31.4747 13.8701L31.4482 13.8275L31.4213 13.7853L31.3941 13.7432L31.3666 13.7014L31.3391 13.6601L31.3113 13.6189L31.2833 13.578L31.2549 13.5376L31.2265 13.4973L31.1978 13.4573L31.1687 13.4177L31.1396 13.3785L31.1103 13.3394L31.0807 13.3008L31.0509 13.2625L31.021 13.2245L30.9908 13.1868L30.9604 13.1496L30.93 13.1126L30.8992 13.0761L30.8682 13.04L30.8372 13.0041L30.806 12.9687L30.7745 12.9338L30.7428 12.8992L30.711 12.8649L30.6791 12.8311L30.6469 12.7976L30.6147 12.7647L30.5822 12.7321L30.5496 12.6999L30.5169 12.6682L30.4841 12.6369L30.4509 12.6061L30.4178 12.5756L30.3845 12.5457L30.351 12.5161L30.3174 12.4871L30.2838 12.4586L30.2499 12.4305L30.216 12.4028L30.1818 12.3757L30.1476 12.349L30.1134 12.3228L30.0789 12.2972L30.0444 12.272L30.0098 12.2472L29.975 12.223L29.9402 12.1994L29.9053 12.1764L29.8702 12.1537L29.8352 12.1316L29.7999 12.1101L29.7646 12.0892L29.7293 12.0688L29.6938 12.0489L29.6583 12.0296L29.6226 12.0108L29.587 11.9926L29.5512 11.975L29.5155 11.9579L12.8646 4.17022L12.8533 4.16495L12.842 4.15979L12.8308 4.15471L12.8197 4.14975L12.8085 4.14478L12.7975 4.13994L12.7865 4.13522L12.7755 4.13057L12.7646 4.12598L12.7537 4.12151L12.743 4.11717L12.7322 4.11282L12.7214 4.10861L12.7108 4.10451L12.7002 4.10035L12.6895 4.09645L12.6791 4.09254L12.6687 4.08875L12.6582 4.08509L12.6479 4.08143L12.6376 4.07783L12.6273 4.07442L12.6171 4.07107L12.6069 4.06777L12.5968 4.06449L12.5867 4.06139L12.5767 4.05841L12.5668 4.05536L12.5569 4.05258L12.5471 4.04972L12.5372 4.04705L12.5275 4.04439L12.5178 4.0419L12.5082 4.03942L12.4987 4.03706L12.4892 4.03477L12.4796 4.03253L12.4702 4.03035L12.4607 4.02837L12.4515 4.02639L12.4422 4.02453L12.433 4.02273L12.4239 4.02099L12.4147 4.01938L12.4057 4.01782L12.3968 4.01633L12.3877 4.01491L12.3788 4.01361L12.37 4.01237L12.3611 4.01119L12.3524 4.01013L12.3438 4.00914L12.3352 4.00827L12.3265 4.00741L12.3181 4.00666L12.3096 4.00592L12.3012 4.00536L12.2928 4.00492L12.2845 4.00436L12.2764 4.00405L12.2681 4.0038L12.2599 4.00362L12.2519 4.00343H12.2438H12.239H12.234L12.2293 4.00355L12.2245 4.00362L12.2198 4.00368L12.2151 4.00387L12.2103 4.00405L12.2057 4.00424L12.2011 4.00448L12.1965 4.00473L12.192 4.00511L12.1875 4.00541L12.1831 4.00579L12.1786 4.0061L12.1743 4.00653L12.17 4.00697L12.1656 4.00741L12.1613 4.0079L12.1571 4.00846L12.1528 4.00895L12.1487 4.00958L12.1445 4.01007L12.1404 4.01075L12.1364 4.01137L12.1324 4.01205L12.1284 4.01274L12.1244 4.01349L12.1206 4.01429L12.1166 4.01503L12.1127 4.01584L12.109 4.01671L12.1052 4.01758L12.1015 4.01838L12.0978 4.01938L12.0942 4.02031L12.0906 4.02124L12.087 4.02217L12.0835 4.02322L12.08 4.02428L12.0764 4.02539L12.073 4.02651L12.0697 4.02763L12.0664 4.02874L12.063 4.02993L12.0598 4.03117L12.0565 4.03235L12.0533 4.03352L12.0501 4.03482L12.0471 4.03613L12.044 4.0375L12.0409 4.0388L12.0379 4.04017L12.035 4.04166L12.0321 4.04302L12.0292 4.04444L12.0264 4.04593L12.0235 4.04749L12.0208 4.04904L12.018 4.05059L12.0154 4.05214L12.0127 4.0537L12.01 4.05531L12.0076 4.05704L12.0051 4.05866L12.0013 4.06113L11.9976 4.06374L11.994 4.06641L11.9903 4.06914L11.9866 4.072L11.983 4.07491L11.9793 4.07795L11.9756 4.08106L11.9719 4.08409L11.9682 4.08739L11.9646 4.09068L11.961 4.09403L11.9574 4.09757L11.9537 4.10109L11.9499 4.1047L11.9463 4.10835L11.9427 4.11214L11.939 4.11592L11.9354 4.1199L11.9317 4.12393L11.928 4.12796L11.9245 4.13212L11.9208 4.13641L11.9171 4.14074L11.9135 4.14509L11.9099 4.14956L11.9062 4.15415L11.9026 4.15868L11.899 4.1634L11.8953 4.16817L11.8918 4.17308L11.8882 4.17798L11.8846 4.18294L11.881 4.18803L11.8774 4.19318L11.8738 4.19846L11.8702 4.20379L11.8667 4.20913L11.8631 4.21458L11.8595 4.22011L11.856 4.22569L11.8524 4.23141L11.8489 4.23711L11.8453 4.24301L11.8418 4.24883L11.8382 4.25486L11.8346 4.26087L11.8312 4.26708L11.8277 4.27328L11.8241 4.27955L11.8206 4.28588L11.817 4.29228L11.8137 4.29879L11.8101 4.30537L11.8066 4.31207L11.8033 4.31877L11.7998 4.32553L11.7963 4.33242L11.7929 4.33943L11.7895 4.34639L11.786 4.35352L11.7826 4.36065L11.7791 4.36784L11.7757 4.37517L11.7699 4.38789L11.7642 4.40074L11.7585 4.41371L11.753 4.42686L11.7475 4.44014L11.742 4.45354L11.7366 4.46713L11.7315 4.48078L11.7263 4.49468L11.7212 4.50858L11.7162 4.52266L11.7113 4.53687L11.7065 4.55133L11.7017 4.56579L11.6971 4.5805L11.6925 4.59526L11.688 4.61016L11.6837 4.62523L11.6793 4.64043L11.675 4.65576L11.671 4.67121L11.6669 4.68691L11.6629 4.70261L11.659 4.71843L11.6553 4.7345L11.6516 4.75064L11.648 4.76696L11.6445 4.7834L11.6411 4.79991L11.6377 4.81659L11.6345 4.83347L11.6314 4.85041L11.6282 4.86748L11.6253 4.88472L11.6224 4.9021L11.6196 4.91953L11.6169 4.93716L11.6143 4.95497L11.6119 4.97283L11.6094 4.99096L11.607 5.00908L11.6049 5.02731L11.6028 5.0458L11.6008 5.06429L11.5988 5.08303L11.597 5.10178L11.5953 5.12082L11.5936 5.13987L11.592 5.15905L11.5906 5.17841L11.5892 5.19796L11.588 5.21757L11.5869 5.23723L11.5858 5.25715L11.5848 5.27719L11.584 5.2973L11.5832 5.31753L11.5825 5.33788L11.582 5.35847L11.5816 5.37908L11.5812 5.3998L11.5808 5.42071L11.5807 5.44181V5.46297V23.0951C11.5807 24.117 11.5762 25.5089 12.1498 26.4779C12.6992 27.4066 13.7828 27.8822 14.5462 28.2393L31.197 36.0268C31.4386 36.1398 31.6468 36.1935 31.8176 36.1935C31.9219 36.1935 32.0027 36.1741 32.056 36.1383C32.1344 36.0855 32.2125 35.9787 32.285 35.8222C32.41 35.5526 32.4799 35.1876 32.4799 34.735V26.4505L36.4102 28.7291L36.4679 28.6992V34.735C36.4679 35.7874 36.264 36.7253 35.8991 37.5117C35.5202 38.3286 34.9627 38.9867 34.2681 39.4546C33.5484 39.9396 32.7173 40.1982 31.8174 40.1982L31.7827 40.1981L31.748 40.1976L31.7132 40.197L31.6783 40.196L31.6434 40.1949L31.6085 40.1935L31.5734 40.1918L31.5383 40.19L31.5032 40.1877L31.468 40.1853L31.4327 40.1826L31.3976 40.1797L31.3622 40.1763L31.3268 40.1729L31.2914 40.169L31.256 40.165L31.2205 40.1609L31.1849 40.1563L31.1493 40.1515L31.1136 40.1464L31.078 40.1412L31.0422 40.1354L31.0065 40.1296L30.9707 40.1236L30.9348 40.1172L30.8988 40.1105L30.863 40.1035L30.827 40.0964L30.791 40.0889L30.7549 40.0812L30.7188 40.0732L30.6828 40.0649L30.6466 40.0564L30.6104 40.0476L30.5741 40.0385L30.538 40.0292L30.5018 40.0195L30.4654 40.0097L30.429 39.9995L30.3927 39.9891L30.3563 39.9783L30.3199 39.9673L30.2834 39.9561L30.2469 39.9445L30.2104 39.9327L30.1738 39.9207L30.1373 39.9083L30.1007 39.8957L30.0641 39.8828L30.0275 39.8697L29.9907 39.8561L29.9541 39.8425L29.9174 39.8283L29.8806 39.814L29.844 39.7996L29.8072 39.7847L29.7704 39.7695L29.7336 39.7541L29.6968 39.7384L29.66 39.7224L29.6231 39.7062L29.5862 39.6897L29.5494 39.6728L29.5125 39.6556L29.4296 39.6169C29.3966 40.5556 29.1975 41.3968 28.8655 42.1127L28.8475 42.151L28.8294 42.189L28.811 42.2267L28.7923 42.2641L28.7734 42.3015L28.7542 42.3385L28.7346 42.3753L28.7149 42.4118L28.695 42.4481L28.6748 42.4842L28.6543 42.52L28.6336 42.5557L28.6127 42.5909L28.5914 42.6261L28.57 42.661L28.5483 42.6955L28.5263 42.7299L28.5042 42.7642L28.4816 42.798L28.4589 42.8316L28.4361 42.865L28.4128 42.8983L28.3895 42.9311L28.3657 42.9638L28.3418 42.9963L28.3177 43.0283L28.2933 43.0602L28.2687 43.0918L28.2438 43.1233L28.2188 43.1544L28.1935 43.1852L28.1679 43.2159L28.1422 43.2462L28.1161 43.2764L28.0899 43.3063L28.0633 43.3358L28.0367 43.3653L28.0097 43.3943L27.9826 43.4231L27.9552 43.4518L27.9277 43.48L27.8998 43.5081L27.8718 43.5358L27.8435 43.5633L27.815 43.5905L27.7863 43.6175L27.7573 43.6443L27.7282 43.6707L27.6989 43.697L27.6693 43.7229L27.6395 43.7485L27.6096 43.7739L27.5793 43.799L27.5489 43.8238L27.5182 43.8485L27.4874 43.8728L27.4563 43.8967L27.425 43.9205L27.3936 43.944L27.3619 43.9672L27.3301 43.9902L27.2979 44.0127L27.2657 44.0351L27.2332 44.0572L27.1994 44.0799L27.1653 44.102L27.1311 44.124L27.097 44.1456L27.0624 44.1668L27.0278 44.1877L26.9929 44.2082L26.958 44.2285L26.9228 44.2484L26.8877 44.2679L26.8521 44.2872L26.8166 44.3061L26.7809 44.3247L26.7451 44.3428L26.709 44.3606L26.6728 44.3782L26.6366 44.3954L26.6 44.4122L26.5634 44.4287L26.5267 44.4449L26.4897 44.4606L26.4526 44.4761L26.4156 44.4911L26.3783 44.5059L26.3406 44.5202L26.3031 44.5344L26.2654 44.5481L26.2274 44.5615L26.1894 44.5743L26.1513 44.587L26.113 44.5993L26.0745 44.6113L26.036 44.6228L25.9973 44.634L25.9585 44.6449L25.9195 44.6554L25.8806 44.6655L25.8414 44.6754L25.8022 44.6849L25.7627 44.6938L25.7232 44.7025L25.6835 44.7109L25.6437 44.7189L25.6038 44.7266L25.5639 44.7337L25.5237 44.7407L25.4835 44.7472L25.4432 44.7534L25.4026 44.7591L25.3621 44.7646L25.3214 44.7697L25.2806 44.7743L25.2397 44.7786L25.1986 44.7826L25.1575 44.786L25.1163 44.7894L25.0748 44.7921L25.0334 44.7945L24.9918 44.7967L24.9502 44.7983L24.9083 44.7997L24.8664 44.8006L24.8244 44.8011L24.7823 44.8014L24.7477 44.8013L24.7128 44.8009L24.6781 44.8002L24.6433 44.7994L24.6082 44.7982L24.5734 44.7967L24.5383 44.7951L24.5033 44.7931L24.4682 44.791L24.433 44.7885L24.3978 44.7858L24.3625 44.7829L24.3272 44.7796L24.2918 44.7762L24.2564 44.7724L24.2209 44.7683L24.1854 44.7642L24.1499 44.7596L24.1142 44.7548L24.0787 44.7497L24.043 44.7444L24.0072 44.7388L23.9715 44.7329L23.9357 44.7268L23.8997 44.7203L23.8639 44.7138L23.828 44.7067L23.7921 44.6996L23.756 44.6922L23.72 44.6844L23.6839 44.6764L23.6477 44.6682L23.6117 44.6597L23.5755 44.6507L23.5393 44.6418L23.503 44.6324L23.4667 44.6227L23.4303 44.6129L23.3942 44.6027L23.3576 44.5923L23.3212 44.5815L23.2848 44.5706L23.2484 44.5593L23.2119 44.5478L23.1754 44.5359L23.1389 44.5238L23.1023 44.5115L23.0657 44.4989L23.0291 44.486L22.9924 44.4729L22.9558 44.4593L22.9192 44.4455L22.8824 44.4315L22.8457 44.4172L22.809 44.4026L22.7722 44.3879L22.7354 44.3726L22.6986 44.3573L22.6618 44.3416L22.6249 44.3256L22.5881 44.3093L22.5512 44.2928L22.5144 44.276L22.4775 44.2588L5.82658 36.4713C4.32534 35.7689 2.98873 34.4282 2.04565 32.8347C1.12638 31.2812 0.555664 29.444 0.555664 27.6978V10.0656V10.0568L0.555849 10.0164L0.556281 9.96805V9.96475C0.567961 8.94967 0.770638 8.04387 1.12459 7.28035C1.50337 6.4634 2.06073 5.80549 2.75564 5.33719C3.47552 4.8524 4.30663 4.59384 5.2065 4.59384C5.94529 4.59384 6.72294 4.76808 7.5093 5.13584L7.5926 5.1748L7.59266 5.1714L7.59427 5.13112L7.59464 5.12318L7.59625 5.08738L7.59686 5.07509L7.59847 5.04389L7.59934 5.02719L7.60087 5.00051L7.60217 4.97948L7.60354 4.95727L7.60526 4.93189L7.60644 4.9142L7.6086 4.88453L7.60966 4.87126L7.61231 4.83732L7.61305 4.82851L7.61621 4.79035L7.61663 4.78588L7.62053 4.7435L7.62461 4.70118L7.62887 4.65899L7.62974 4.65049L7.63344 4.61692L7.63487 4.6042L7.63826 4.57503L7.64017 4.5581L7.64327 4.53334L7.64586 4.51218L7.64852 4.4917L7.65186 4.46645L7.65402 4.45025L7.65804 4.42084L7.65971 4.40899L7.66452 4.37542L7.66563 4.36784L7.67132 4.33025L7.67182 4.3269L7.67824 4.28613L7.68485 4.24548L7.68559 4.24059L7.69165 4.20497L7.6932 4.19597L7.69869 4.16463L7.70105 4.15161L7.70599 4.12449L7.70913 4.1073L7.71352 4.08441L7.71754 4.06325L7.72125 4.04451L7.72619 4.01938L7.72923 4.00486L7.74585 3.92593L7.75375 3.88908L7.75437 3.88665L7.76321 3.84763L7.76351 3.84607L7.77229 3.80872L7.77359 3.80313L7.78156 3.76993C7.79404 3.7185 7.80714 3.66731 7.82067 3.61667L7.82741 3.59192L7.83106 3.57876L7.83896 3.55022L7.84162 3.54104L7.85237 3.50343L7.86282 3.46751L7.86337 3.46602L7.87449 3.42879L7.87517 3.42643L7.88587 3.39162L7.88777 3.3856L7.89754 3.3547L7.90063 3.34489L7.90934 3.31797C7.92516 3.26919 7.94166 3.2208 7.95853 3.17283L7.96848 3.14497L7.97138 3.13696L7.98275 3.10557L7.98442 3.10129C8.00636 3.04197 8.02904 2.98351 8.05258 2.9255L8.05808 2.91203L8.06685 2.89088L8.07384 2.87393L8.08131 2.85637L8.11079 2.78806L8.12265 2.76095L8.12574 2.75418L8.13946 2.72372L8.14101 2.72036L8.15639 2.68679L8.17431 2.64863L8.19248 2.6106L8.21089 2.57287L8.22955 2.53533L8.24858 2.49811L8.26773 2.46112L8.2872 2.42432L8.30691 2.38777L8.32687 2.35135L8.34707 2.31537L8.36754 2.2795L8.38829 2.24388L8.40925 2.20852L8.4305 2.17339L8.45194 2.13859L8.47369 2.1039L8.49563 2.06953L8.51781 2.03539L8.54031 2.00145L8.56298 1.96789L8.5859 1.9345L8.60908 1.9013L8.63256 1.86842L8.65623 1.83571L8.68007 1.80332L8.70424 1.77125L8.72858 1.73935L8.75324 1.70764L8.77808 1.67625L8.80316 1.64516L8.82844 1.6142L8.85396 1.58355L8.87972 1.55321L8.9058 1.52311L8.93206 1.49326L8.95857 1.46361L8.98521 1.43425L9.01214 1.40515L9.03934 1.37636L9.06665 1.34782L9.09433 1.31953L9.12207 1.29135L9.15019 1.26362L9.17843 1.23607L9.20685 1.20888L9.23565 1.18189L9.2645 1.15516L9.29373 1.12866L9.32302 1.10247L9.35262 1.07654L9.38235 1.05091L9.41244 1.02553L9.44259 1.0004L9.47305 0.975582L9.50364 0.950947L9.5346 0.926686L9.56556 0.90261L9.59683 0.878908L9.62833 0.855391L9.66004 0.832184L9.69193 0.809287L9.72405 0.786577L9.7563 0.764239L9.78881 0.742149L9.82261 0.719501L9.8566 0.697287L9.89083 0.675383L9.92512 0.65379L9.95966 0.632569L9.99427 0.611659L10.0291 0.591058L10.0641 0.570768L10.0992 0.550911L10.1345 0.531366L10.1699 0.51213L10.2055 0.493267L10.2412 0.474714L10.2771 0.456472L10.3132 0.438664L10.3493 0.421103L10.3856 0.403916L10.4221 0.387162L10.4588 0.370656L10.4955 0.354462L10.5324 0.338763L10.5694 0.32325L10.6067 0.308172L10.644 0.293404L10.6815 0.27907L10.7191 0.265048L10.7568 0.251273L10.7947 0.237932L10.8327 0.224963L10.8709 0.212305L10.9092 0.20002L10.9476 0.188106L10.9862 0.176502L11.0248 0.165333L11.0636 0.154412L11.1026 0.143927L11.1416 0.13375L11.1807 0.12407L11.22 0.114577L11.2594 0.105579L11.2989 0.0967683L11.3385 0.0884536L11.3782 0.0805112L11.4182 0.072879L11.4581 0.0656813L11.4982 0.0587937L11.5385 0.0522164L11.5789 0.0460115L11.6194 0.0403028L11.66 0.0348425L11.7007 0.0297543L11.7414 0.0251627L11.7823 0.0208192L11.8233 0.0169101L11.8645 0.0132491L11.9059 0.0100846L11.9473 0.00723026L11.9887 0.00487236L12.0303 0.00276267L12.072 0.00108732L12.1137 -0.000215732L12.1557 -0.00120853L12.1976 -0.00176698L12.2397 -0.00195312H12.2745L12.3092 -0.00151878L12.344 -0.000898281L12.3788 3.2468e-05L12.4138 0.00114936L12.4486 0.00257651L12.4837 0.00425187L12.5187 0.00611336L12.5539 0.00834716L12.5891 0.0107671L12.6242 0.0135594L12.6595 0.0164757L12.6948 0.0197023L12.7302 0.023177L12.7657 0.0269622L12.8011 0.0309954L12.8366 0.0352148L12.8721 0.0397444L12.9078 0.0445843L12.9433 0.0496724L12.979 0.0550087L13.0148 0.0605932L13.0505 0.0664258L13.0863 0.0725068L13.1223 0.07896L13.1581 0.0855993L13.194 0.0925489L13.2299 0.0996846L13.266 0.107193L13.3019 0.114949L13.3381 0.122954L13.3742 0.131206L13.4104 0.139707L13.4465 0.14858L13.4827 0.157577L13.519 0.166947L13.5553 0.176626L13.5916 0.186492L13.6279 0.196669L13.6644 0.207031L13.7008 0.217828L13.7372 0.228749L13.7736 0.239979L13.8101 0.251521L13.8466 0.26331L13.8831 0.27541L13.9196 0.287758L13.9562 0.300354L13.9929 0.313261L14.0295 0.326539L14.0662 0.339942L14.1029 0.353717L14.1395 0.367741L14.1763 0.382012L14.213 0.396593L14.2498 0.411423L14.2865 0.426563L14.3234 0.442014L14.3602 0.457713L14.397 0.473659L14.4338 0.489916L14.4707 0.506484L14.5075 0.5233L14.5444 0.540425L31.1952 8.32812L31.2655 8.36151L31.3355 8.39588L31.4053 8.43119L31.4747 8.4673L31.5439 8.50434L31.6129 8.54232L31.6817 8.58116L31.75 8.62081L31.8181 8.66127L31.886 8.70266L31.9535 8.74492L32.0207 8.78798L32.0877 8.83184L32.1543 8.87658L32.2206 8.92207L32.2866 8.96841L32.3522 9.01551L32.4177 9.06341L32.4826 9.11212L32.5474 9.16151L32.6115 9.21178L32.6756 9.26272L32.7392 9.31447L32.8024 9.36684L32.8653 9.42002L32.9279 9.47388L32.99 9.52855L33.0517 9.58376L33.1129 9.63973L33.174 9.69639L33.2345 9.75372L33.2947 9.81174L33.3545 9.87031L33.4138 9.92957L33.4727 9.98951L33.5312 10.0501L33.5893 10.1112L33.6469 10.173L33.7041 10.2354L33.7609 10.2983L33.8171 10.3619L33.8729 10.426L33.9282 10.4907L33.9832 10.5559L34.0376 10.6217L34.0915 10.6881L34.145 10.7549L34.198 10.8223L34.2505 10.8902L34.3026 10.9585L34.354 11.0274L34.405 11.0968L34.4554 11.1667L34.5053 11.237L34.5548 11.3078L34.6038 11.3791L34.6521 11.4507L34.6999 11.5228L34.7473 11.5954L34.794 11.6682L34.8401 11.7417L34.8857 11.8154L34.9308 11.8895L34.9752 11.964L35.018 12.0371L35.0604 12.1105L35.1021 12.1843L35.1434 12.2585L35.1841 12.3331L35.2242 12.4081L35.2639 12.4834L35.303 12.5591L35.3416 12.6351L35.3796 12.7115L35.417 12.7883L35.454 12.8652L35.4904 12.9426L35.5261 13.0202L35.5614 13.0982L35.5959 13.1765L35.6299 13.255L35.6633 13.3337L35.6961 13.4128L35.7284 13.492L35.7598 13.5716L35.7909 13.6514L35.8211 13.7313L35.8509 13.8116L35.88 13.8921L35.9085 13.9726L35.9362 14.0536L35.9634 14.1344L35.9899 14.2156L36.0157 14.297L36.0409 14.3786L36.0654 14.4602L36.0892 14.5421L36.1124 14.624L36.1348 14.706L36.1567 14.7882L36.1777 14.8704L36.1981 14.9528L36.2178 15.0352L36.2367 15.1179L36.255 15.2004L36.2726 15.2831L36.2894 15.3659L36.3054 15.4486L36.3209 15.5315L36.3354 15.6144L36.3493 15.6973L36.3624 15.78L36.3747 15.863L36.3864 15.9459L36.3972 16.0287L36.4073 16.1116L36.4165 16.1944L36.425 16.2772L36.4329 16.36L36.4397 16.4425L36.4459 16.5252L36.4511 16.6077L36.4557 16.6902L36.4594 16.7726L36.4623 16.8548L36.4644 16.9369L36.4657 17.019L36.466 17.1009V24.1775L36.4714 24.1776ZM7.59594 9.58532L5.83542 8.76185C5.59369 8.64886 5.38557 8.59531 5.21509 8.59531C5.11048 8.59531 5.02984 8.6146 4.97645 8.65048C4.8981 8.70327 4.81993 8.81025 4.74738 8.96674C4.62245 9.23635 4.55249 9.6012 4.55249 10.0537V22.8776L4.55224 27.6947C4.55224 28.7167 4.90835 29.829 5.48172 30.7978C6.03117 31.7267 6.75439 32.4817 7.5177 32.8389L24.1686 40.6266C24.4102 40.7396 24.6184 40.7931 24.7892 40.7931C24.8936 40.7931 24.9746 40.7738 25.0277 40.7379C25.1062 40.6853 25.1842 40.5783 25.2568 40.4217C25.3818 40.1522 25.4517 39.7875 25.4517 39.3349V37.7525L12.8669 31.8666C11.4724 31.171 10.6443 30.8121 10.1248 30.4926L10.0706 30.4584L10.0167 30.423L9.96312 30.3863L9.90999 30.3483L9.85727 30.3094L9.80493 30.269L9.75303 30.2276L9.70143 30.1853L9.65033 30.1416L9.59979 30.0969L9.54962 30.0513L9.49987 30.0046L9.45069 29.9569L9.40194 29.9083L9.3538 29.8587L9.30603 29.8082L9.25888 29.7569C9.24325 29.7396 9.22762 29.7222 9.21229 29.7047L9.1662 29.6516L9.12066 29.5978L9.07567 29.5433L9.03136 29.4879L8.98761 29.4318L8.94448 29.3752L8.90197 29.3177L8.86008 29.2597L8.81874 29.201L8.77821 29.1418L8.73828 29.0821L8.69905 29.0217L8.66043 28.9609L8.62243 28.8996L8.58523 28.8379L8.54871 28.7757L8.51299 28.7132L8.47796 28.6503L8.44372 28.587L8.41023 28.5234L8.37754 28.4596L8.3456 28.3954L8.31452 28.3311L8.28424 28.2666L8.25476 28.2017L8.22615 28.1369L8.19841 28.0719L8.17147 28.0067L8.14545 27.9416L8.12031 27.8764L8.09601 27.8111L8.07266 27.7458L8.05023 27.6806L8.02872 27.6154L8.00815 27.5505L7.98856 27.4855L7.96984 27.4206L7.95223 27.356L7.93554 27.2916L7.91985 27.2273L7.9052 27.1634L7.89149 27.0998L7.87888 27.0363L7.86732 26.9732L7.85682 26.9105L7.84736 26.8482L7.84193 26.8099L7.83649 26.7712L7.83111 26.7321L7.82574 26.6926L7.82043 26.653L7.81517 26.6128L7.80986 26.5722L7.80467 26.5313L7.79948 26.4897L7.79435 26.4478L7.78922 26.4055L7.78415 26.3626L7.77921 26.3192L7.7742 26.2753L7.76927 26.2309L7.76438 26.186L7.7595 26.1404L7.75468 26.0943L7.74998 26.0476L7.74529 26.0003L7.74059 25.9523L7.73596 25.9038L7.73139 25.8546L7.72687 25.8047L7.72243 25.7542L7.71804 25.7028L7.71365 25.6509L7.70932 25.5982L7.70512 25.5448L7.70086 25.4906L7.69672 25.4357L7.69258 25.3799L7.68856 25.3234L7.68467 25.266L7.68072 25.2079L7.67682 25.149L7.67299 25.089L7.66928 25.0282L7.66563 24.9665L7.66193 24.9041L7.65841 24.8406L7.65495 24.7762L7.65149 24.7109L7.64815 24.6447L7.64481 24.5774L7.64166 24.5092L7.63845 24.4399L7.63543 24.3697L7.63233 24.2984L7.62942 24.226L7.62647 24.1526L7.62368 24.0781L7.6209 24.0025L7.61825 23.9259L7.61571 23.8481L7.61324 23.7691L7.61071 23.6889L7.60842 23.6077L7.60607 23.5253L7.60384 23.4416L7.60175 23.3568L7.59971 23.2707L7.59773 23.1834L7.59581 23.0949V9.58687L7.59594 9.58532ZM80.5992 38.1956C78.6376 38.1956 76.9005 37.6941 75.3877 36.6838C73.8749 35.6808 72.6951 34.249 71.841 32.4027C70.9941 30.5639 70.5743 28.3761 70.5743 25.8467C70.5743 23.3318 71.0014 21.1585 71.8554 19.3197C72.7097 17.4808 73.8966 16.0634 75.4094 15.0749C76.9222 14.0792 78.6593 13.585 80.6209 13.585C82.1627 13.585 83.3858 13.8393 84.2907 14.3481C85.1954 14.8568 85.8903 15.4383 86.3825 16.0852C86.8675 16.7322 87.2366 17.2627 87.4972 17.6915H87.7939V5.96029H91.6084V37.6869H87.9169V34.0018H87.4971C87.2365 34.4451 86.8602 34.9903 86.3608 35.6516C85.8613 36.3131 85.152 36.9019 84.2399 37.4179C83.3279 37.9411 82.1119 38.1956 80.5992 38.1956ZM81.1783 34.7722C82.6186 34.7722 83.8346 34.387 84.8191 33.6312C85.8106 32.868 86.5635 31.814 87.0701 30.4694C87.5768 29.1174 87.8301 27.562 87.8301 25.8031C87.8301 24.0442 87.584 22.5105 87.0773 21.1949C86.5779 19.8794 85.8324 18.8546 84.8407 18.1204C83.8565 17.379 82.6331 17.0082 81.1783 17.0082C79.68 17.0082 78.4277 17.4008 77.4289 18.1785C76.4372 18.9635 75.6917 20.0174 75.1923 21.3403C74.7 22.6704 74.4539 24.1604 74.4539 25.8031C74.4539 27.4676 74.7001 28.9721 75.2067 30.3313C75.7062 31.6833 76.459 32.7662 77.4651 33.5658C78.4712 34.3653 79.7017 34.7722 81.1783 34.7722ZM50.6754 41.5935H49.8136C49.7887 41.4513 49.7434 41.3252 49.6773 41.2146C49.6114 41.1047 49.5291 41.0104 49.4308 40.9333C49.3323 40.8562 49.2209 40.7987 49.0955 40.7595C48.97 40.7193 48.8361 40.6999 48.6909 40.6999C48.4348 40.6999 48.2076 40.7639 48.0087 40.8931C47.8108 41.0224 47.6562 41.2103 47.5436 41.4579C47.4313 41.7055 47.375 42.0073 47.375 42.3633C47.375 42.7262 47.4323 43.0313 47.5447 43.279C47.6573 43.5265 47.8131 43.7132 48.0098 43.8381C48.2076 43.9641 48.4338 44.027 48.6889 44.027C48.8306 44.027 48.9625 44.0086 49.0857 43.9706C49.21 43.9326 49.3216 43.8773 49.4199 43.8023C49.5194 43.7284 49.6027 43.6374 49.6719 43.5298C49.74 43.4221 49.7866 43.2984 49.8136 43.1594L50.6754 43.1639C50.643 43.3897 50.5727 43.6003 50.4668 43.798C50.3597 43.9954 50.2203 44.1693 50.0482 44.3203C49.8762 44.4701 49.6753 44.5874 49.4449 44.6721C49.2144 44.7557 48.9582 44.7981 48.677 44.7981C48.2627 44.7981 47.892 44.7014 47.5664 44.5082C47.241 44.3158 46.9846 44.0367 46.7976 43.6731C46.6094 43.3094 46.5163 42.8726 46.5163 42.3633C46.5163 41.8531 46.6105 41.4164 46.7998 41.0527C46.9878 40.6902 47.2452 40.412 47.5708 40.2189C47.8974 40.0255 48.265 39.9299 48.677 39.9299C48.9399 39.9299 49.1843 39.9669 49.4102 40.0408C49.6362 40.1146 49.8375 40.2233 50.0136 40.3654C50.1899 40.5089 50.336 40.6827 50.4506 40.8888C50.5651 41.0951 50.6398 41.3295 50.6754 41.5935ZM52.0067 44.7328H51.0939L52.7551 39.9939H53.8104L55.4736 44.7328H54.5621L53.3013 40.9658H53.2644L52.0067 44.7328ZM56.0079 44.7328V44.1986L58.4282 40.7139H55.995V39.9939H59.4878V40.5294L57.0709 44.0129H59.5021V44.7328H56.0079ZM60.3303 44.7328V39.9939H61.1858V42.0007H63.3723V39.9939H64.2288V44.7328H63.3723V42.7196H61.1858V44.7328H60.3303ZM41.1257 43.3814V40.5503H41.6242V41.6091H41.645C41.6701 41.5578 41.707 41.5026 41.7534 41.4444C41.7999 41.386 41.8635 41.3354 41.9434 41.2939C42.0236 41.2514 42.1253 41.231 42.2492 41.231C42.4125 41.231 42.5597 41.2722 42.6915 41.3557C42.8235 41.4391 42.9281 41.5623 43.0056 41.7245C43.083 41.8875 43.1219 42.0863 43.1219 42.3226C43.1219 42.5555 43.0838 42.7542 43.0076 42.917C42.9312 43.0797 42.8278 43.2042 42.6967 43.2899C42.5649 43.3755 42.4166 43.4187 42.2501 43.4187C42.1296 43.4187 42.0287 43.398 41.9492 43.3581C41.8693 43.3171 41.8055 43.2683 41.7567 43.2107C41.7088 43.1531 41.6715 43.0984 41.645 43.0467H41.6158V43.3813L41.1257 43.3814ZM41.6148 42.3202C41.6148 42.4571 41.6341 42.5776 41.6729 42.6809C41.7121 42.7839 41.7682 42.8644 41.8422 42.9221C41.9165 42.9791 42.0063 43.0085 42.1118 43.0085C42.2215 43.0085 42.3139 42.9785 42.388 42.9186C42.4624 42.8597 42.5183 42.7781 42.5568 42.6744C42.5949 42.5706 42.6142 42.4526 42.6142 42.3202C42.6142 42.1877 42.5957 42.0711 42.557 41.9684C42.5197 41.8667 42.4637 41.7862 42.3894 41.7286C42.3152 41.6703 42.2227 41.6409 42.1118 41.6409C42.005 41.6409 41.9146 41.6696 41.8402 41.7253C41.7661 41.7818 41.7097 41.8609 41.6717 41.9621C41.6336 42.0634 41.6148 42.1828 41.6148 42.3202ZM43.7835 44.1775C43.7158 44.1775 43.653 44.1724 43.5955 44.1618C43.5381 44.1509 43.4922 44.1393 43.4586 44.1249L43.5743 43.7349C43.6467 43.7564 43.7111 43.7666 43.7683 43.7653C43.825 43.765 43.8751 43.7472 43.9194 43.7123C43.9624 43.678 43.9994 43.621 44.03 43.5405L44.0724 43.4256L43.3057 41.258H43.8349L44.3218 42.8616H44.3439L44.8322 41.258H45.3625L44.5156 43.6384C44.476 43.7513 44.4238 43.8471 44.3585 43.9284C44.2934 44.0085 44.2142 44.0703 44.1203 44.1133C44.0259 44.1559 43.9138 44.1775 43.7835 44.1775ZM102.093 38.1957C100.471 38.1957 99.0236 37.9632 97.757 37.4834C96.4903 37.011 95.448 36.3059 94.6301 35.3683C93.8122 34.4307 93.2548 33.2823 92.9725 31.9159L96.5988 31.0436C96.9391 32.3519 97.5832 33.3041 98.5242 33.9146C99.4579 34.5251 100.638 34.8303 102.049 34.8303C103.707 34.8303 105.024 34.4815 106.008 33.7693C106.986 33.0569 107.478 32.2138 107.478 31.2326C107.478 30.4113 107.196 29.728 106.624 29.1829C106.052 28.6305 105.176 28.2234 104.003 27.9546L100.059 27.0169C97.909 26.5082 96.3093 25.7159 95.267 24.6474C94.2175 23.5717 93.6963 22.1979 93.6963 20.5262C93.6963 19.1598 94.0799 17.9605 94.84 16.9138C95.6072 15.8743 96.6495 15.053 97.9669 14.4643C99.2914 13.8756 100.79 13.5848 102.476 13.5848C104.105 13.5848 105.48 13.8247 106.624 14.319C107.76 14.806 108.687 15.4819 109.396 16.3396C110.113 17.1972 110.648 18.1858 111.003 19.3123L107.543 20.2064C107.217 19.356 106.674 18.5782 105.922 17.8805C105.162 17.19 104.025 16.8411 102.498 16.8411C101.087 16.8411 99.9066 17.1682 98.9657 17.8224C98.0247 18.4693 97.5542 19.2978 97.5542 20.2862C97.5542 21.1731 97.8727 21.8781 98.5098 22.4086C99.1467 22.9393 100.16 23.368 101.542 23.6952L105.125 24.5456C107.275 25.0616 108.868 25.8539 109.895 26.9224C110.93 27.9981 111.444 29.35 111.444 30.9781C111.444 32.3736 111.054 33.6093 110.272 34.6922C109.483 35.7826 108.39 36.633 106.978 37.2579C105.574 37.883 103.946 38.1957 102.093 38.1957ZM60.3661 37.687V13.883H64.0577V17.5463H64.311C64.7452 16.3325 65.5269 15.3658 66.6562 14.6389C67.7781 13.9048 69.0448 13.5414 70.4562 13.5414C70.7385 13.5414 71.0787 13.5487 71.4695 13.5632C71.8531 13.5778 72.1643 13.5923 72.3888 13.6068V17.459C72.273 17.43 71.9907 17.3863 71.5418 17.3282C71.0859 17.2701 70.6082 17.2411 70.1015 17.2411C68.9652 17.2411 67.9518 17.4809 67.0542 17.9607C66.1568 18.4331 65.4546 19.0872 64.9479 19.9159C64.4341 20.7443 64.1807 21.7038 64.1807 22.7796V37.687H60.3661ZM47.5514 34.8523C48.9629 34.8523 50.1572 34.5761 51.1343 34.0237C52.1114 33.4713 52.8498 32.7517 53.3564 31.865C53.8702 30.9782 54.1236 30.0479 54.1236 29.0813V25.7814C53.9644 25.9704 53.6315 26.1375 53.103 26.283C52.5819 26.4356 51.9811 26.5664 51.3153 26.6754C50.6421 26.7918 49.9906 26.8862 49.3609 26.9662C48.7311 27.0461 48.2318 27.1042 47.8698 27.1478C46.9506 27.2569 46.0893 27.4531 45.2931 27.7294C44.4896 28.0056 43.8527 28.4125 43.375 28.9432C42.89 29.481 42.6511 30.2006 42.6511 31.1091C42.6511 31.9304 42.861 32.621 43.2882 33.1734C43.7079 33.7258 44.2942 34.1474 45.0253 34.4308C45.7636 34.7143 46.6032 34.8523 47.5514 34.8523Z" fill="white"/>
</g>
</g>
<defs>
<clipPath id="clip0_346_398">
<rect width="112" height="44.8" fill="white"/>
</clipPath>
<clipPath id="clip1_346_398">
<rect width="112" height="44.8" fill="white"/>
</clipPath>
</defs>
</svg>
